<svg width="22" height="22" viewBox="0 0 22 22" fill="none" xmlns="http://www.w3.org/2000/svg">
<path d="M2.75 11V22H8.61523H14.4805V19.6152V17.2305H16.8652H19.25V8.61523V0H11H2.75V11ZM11.6875 2.75V3.39453H8.25H4.8125V2.75V2.10547H8.25H11.6875V2.75ZM17.1875 5.5V6.14453H11H4.8125V5.5V4.85547H11H17.1875V5.5ZM17.1875 8.25V8.89453H11H4.8125V8.25V7.60547H11H17.1875V8.25ZM17.1875 11V11.6445H11H4.8125V11V10.3555H11H17.1875V11ZM17.1875 13.75V14.3945H11H4.8125V13.75V13.1055H11H17.1875V13.75ZM13.0625 16.5V17.1445H8.9375H4.8125V16.5V15.8555H8.9375H13.0625V16.5ZM11.6875 19.25V19.8945H8.25H4.8125V19.25V18.6055H8.25H11.6875V19.25Z" fill="white"/>
<path d="M15.7695 20.118V21.7207L17.3594 20.1309C18.2359 19.2586 18.9492 18.5367 18.9492 18.5324C18.9492 18.5238 18.2359 18.5195 17.3594 18.5195H15.7695V20.118Z" fill="white"/>
</svg>
