<svg width="20" height="20" viewBox="0 0 20 20" fill="none" xmlns="http://www.w3.org/2000/svg">
<g clip-path="url(#clip0_73_263)">
<path d="M10 0C11.9778 0 13.9112 0.58649 15.5557 1.6853C17.2002 2.78412 18.4819 4.3459 19.2388 6.17317C19.9957 8.00043 20.1937 10.0111 19.8079 11.9509C19.422 13.8907 18.4696 15.6725 17.0711 17.0711C15.6725 18.4696 13.8907 19.422 11.9509 19.8079C10.0111 20.1937 8.00043 19.9957 6.17317 19.2388C4.3459 18.4819 2.78412 17.2002 1.6853 15.5557C0.58649 13.9112 0 11.9778 0 10C0 7.34784 1.05357 4.8043 2.92893 2.92893C4.8043 1.05357 7.34784 0 10 0" fill="#53AE94"/>
<path d="M11.2351 16.093H8.77484V11.3284C7.42586 11.2659 6.19765 11.0998 5.31633 10.8607C4.96094 10.7749 4.61881 10.6414 4.29929 10.4638C4.055 10.3145 3.93109 10.1573 3.93109 9.99695C3.93109 9.83656 4.05492 9.67945 4.29914 9.53016C4.61867 9.35248 4.96082 9.21897 5.31625 9.13328C6.19765 8.89414 7.42601 8.72828 8.77484 8.66633V7.17992H5.37289V4.91336H14.6361V7.17992H11.2343V8.66758L11.2351 8.66797C12.5817 8.73047 13.8078 8.89602 14.6875 9.13492C15.0422 9.22057 15.3837 9.35398 15.7026 9.53149C15.9463 9.6807 16.0698 9.83758 16.0698 9.99789C16.0698 10.1582 15.9462 10.3152 15.7026 10.4643C15.3837 10.6418 15.0422 10.7753 14.6875 10.8609C13.8078 11.0999 12.5817 11.2658 11.2351 11.328V16.093ZM8.77633 10.9227C8.86008 10.9271 9.31359 10.949 10.015 10.949C10.7454 10.949 11.1115 10.9309 11.235 10.9232V10.9244L11.2354 10.9234C12.4252 10.8703 13.5057 10.7384 14.2779 10.5519C14.5868 10.4859 14.8865 10.3822 15.1701 10.243C15.3841 10.1272 15.4926 10.0055 15.4926 9.88149C15.4926 9.75742 15.3841 9.63578 15.1702 9.52C14.8867 9.38082 14.5871 9.2771 14.2782 9.21117C13.5062 9.02477 12.4255 8.89289 11.2353 8.83984V10.5009C11.165 10.5073 10.777 10.539 10.0253 10.539C9.39531 10.539 8.94187 10.5124 8.77617 10.5009V8.84C7.58304 8.89297 6.50015 9.02461 5.72711 9.21086C5.41755 9.27673 5.11729 9.38051 4.83312 9.51985C4.61859 9.63578 4.51008 9.75766 4.51008 9.88211C4.51008 10.0066 4.61859 10.1286 4.8332 10.2446C5.11732 10.3841 5.41756 10.488 5.72711 10.554C6.50054 10.7404 7.5832 10.8721 8.77625 10.9249V10.923L8.77633 10.9227Z" fill="white"/>
</g>
<defs>
<clipPath id="clip0_73_263">
<rect width="20" height="20" fill="white"/>
</clipPath>
</defs>
</svg>
