<svg width="32" height="32" viewBox="0 0 32 32" fill="none" xmlns="http://www.w3.org/2000/svg">
<rect width="32" height="32" rx="6" fill="white"/>
<path d="M16 26C21.5417 26 26 21.5417 26 16C26 10.4583 21.5417 6 16 6C10.4583 6 6 10.4583 6 16C6 21.5417 10.4583 26 16 26Z" fill="#2775CA"/>
<path d="M18.7501 17.5833C18.7501 16.125 17.8751 15.625 16.1251 15.4167C14.8751 15.25 14.6251 14.9167 14.6251 14.3333C14.6251 13.7499 15.0418 13.375 15.8751 13.375C16.6251 13.375 17.0418 13.625 17.2501 14.25C17.2918 14.375 17.4168 14.4583 17.5418 14.4583H18.2084C18.3751 14.4583 18.5001 14.3333 18.5001 14.1667V14.125C18.3334 13.2083 17.5834 12.5 16.6251 12.4167V11.4167C16.6251 11.25 16.5001 11.125 16.2918 11.0833H15.6668C15.5001 11.0833 15.3751 11.2083 15.3334 11.4167V12.375C14.0834 12.5417 13.2918 13.375 13.2918 14.4167C13.2918 15.7917 14.1251 16.3333 15.8751 16.5417C17.0418 16.75 17.4168 17 17.4168 17.6667C17.4168 18.3334 16.8334 18.7917 16.0418 18.7917C14.9584 18.7917 14.5834 18.3333 14.4584 17.7083C14.4168 17.5417 14.2918 17.4583 14.1668 17.4583H13.4584C13.2918 17.4583 13.1668 17.5833 13.1668 17.75V17.7917C13.3334 18.8333 14.0001 19.5833 15.3751 19.7917V20.7917C15.3751 20.9583 15.5001 21.0833 15.7084 21.125H16.3334C16.5001 21.125 16.6251 21 16.6668 20.7917V19.7917C17.9168 19.5833 18.7501 18.7083 18.7501 17.5833V17.5833Z" fill="white"/>
<path d="M13.875 21.9583C10.625 20.7917 8.95826 17.1667 10.1667 13.9583C10.7917 12.2083 12.1667 10.875 13.875 10.25C14.0417 10.1667 14.125 10.0417 14.125 9.83332V9.25002C14.125 9.08332 14.0417 8.95832 13.875 8.91672C13.8333 8.91672 13.75 8.91672 13.7083 8.95832C9.74996 10.2083 7.58326 14.4167 8.83326 18.375C9.58326 20.7083 11.375 22.5 13.7083 23.25C13.875 23.3333 14.0417 23.25 14.0833 23.0833C14.125 23.0417 14.125 23 14.125 22.9167V22.3333C14.125 22.2083 14 22.0417 13.875 21.9583ZM18.2917 8.95832C18.125 8.87502 17.9583 8.95832 17.9167 9.12502C17.875 9.16672 17.875 9.20832 17.875 9.29172V9.87502C17.875 10.0417 18 10.2083 18.125 10.2917C21.375 11.4583 23.0417 15.0833 21.8333 18.2917C21.2083 20.0417 19.8333 21.375 18.125 22C17.9583 22.0833 17.875 22.2083 17.875 22.4167V23C17.875 23.1667 17.9583 23.2917 18.125 23.3333C18.1667 23.3333 18.25 23.3333 18.2917 23.2917C22.25 22.0417 24.4167 17.8333 23.1667 13.875C22.4167 11.5 20.5833 9.70832 18.2917 8.95832V8.95832Z" fill="white"/>
</svg>
