<svg width="32" height="32" viewBox="0 0 32 32" fill="none" xmlns="http://www.w3.org/2000/svg">
<rect width="32" height="32" rx="6" fill="white"/>
<g clip-path="url(#clip0_73_153)">
<path d="M20.4793 7.75959C19.9646 8.27423 19.4932 8.83201 19.074 9.42677L18.9415 9.38363C18.1773 9.13401 17.3853 8.97993 16.5871 8.92754C16.3468 8.90905 15.45 8.90905 15.1573 8.92754C14.2728 8.98609 13.5948 9.1186 12.8244 9.38671C12.7936 9.39904 12.7659 9.40828 12.7381 9.41753C12.3036 8.82585 11.8198 8.27115 11.2867 7.76267C13.8445 6.45297 16.8368 6.2958 19.5147 7.32816C19.8013 7.43602 20.0817 7.56236 20.356 7.69796L20.4793 7.75959Z" fill="#F00500"/>
<path d="M25.2496 19.4484C24.8614 20.5547 24.2789 21.5809 23.5239 22.4746C23.1141 22.9553 22.6611 23.396 22.1741 23.7966C21.0339 24.7149 19.7027 25.3713 18.282 25.7165C16.7104 26.0955 15.0709 26.0955 13.4993 25.7165C12.0755 25.3713 10.7473 24.7149 9.60712 23.7966C9.12022 23.396 8.66721 22.9553 8.25735 22.4746C6.08478 19.9075 5.4253 16.3821 6.53162 13.2049C6.74117 12.6163 7.00311 12.0493 7.31744 11.51C7.46228 11.2635 7.64102 10.9861 7.72731 10.8721C8.02315 12.1448 8.38678 13.2635 8.52237 13.6672C8.51313 13.6887 8.5008 13.7134 8.48848 13.735C7.77045 15.1895 7.38216 16.5917 7.28971 18.0832C7.28971 18.1017 7.28663 18.1233 7.28663 18.1417C7.26197 18.5886 7.2743 18.8012 7.34826 19.0817C7.57938 19.9599 8.29125 20.9276 9.40681 21.8767C11.2342 23.4299 13.7119 24.5516 15.5886 24.681C17.5455 24.8136 20.433 23.6703 22.356 22C22.658 21.7319 22.9415 21.4484 23.2065 21.1464C23.3976 20.9245 23.6811 20.5424 23.6595 20.5424C23.6533 20.5424 23.6595 20.5362 23.6718 20.53C23.6811 20.5239 23.6903 20.5146 23.6842 20.5085C23.6811 20.5054 23.6872 20.4961 23.6965 20.4931C23.7057 20.49 23.7119 20.4838 23.7088 20.4777C23.7057 20.4715 23.7088 20.4653 23.7211 20.4622C23.7304 20.4592 23.7335 20.4499 23.7304 20.4438C23.7273 20.4376 23.7304 20.4314 23.7366 20.4314C23.7427 20.4314 23.7489 20.4222 23.7489 20.416C23.7489 20.4099 23.755 20.4006 23.7612 20.4006C23.7674 20.4006 23.7735 20.3944 23.7735 20.3883C23.7828 20.3636 23.7982 20.339 23.8136 20.3174C23.8598 20.2465 24.0447 19.9168 24.0694 19.8613C24.245 19.4638 24.356 19.1094 24.4084 18.755C24.433 18.5855 24.4484 18.2743 24.4361 18.2003C24.433 18.188 24.433 18.1664 24.4299 18.1325C24.4238 18.0709 24.4207 17.9784 24.4145 17.886C24.4084 17.7473 24.396 17.5532 24.3868 17.4576C24.2543 16.0585 23.8968 14.9152 23.2188 13.7041C23.1911 13.6579 23.1664 13.6117 23.151 13.5747C23.1449 13.5655 23.1418 13.5562 23.1387 13.5501C23.2342 13.2635 23.6256 12.0647 23.9369 10.6934L23.943 10.6995L23.9892 10.7612C24.0694 10.869 24.282 11.1895 24.3775 11.3436C24.8121 12.0524 25.151 12.8135 25.3914 13.6086C25.9492 15.5223 25.903 17.5624 25.2496 19.4484Z" fill="#F00500"/>
<path d="M21.2497 15.7658C21.2405 15.8151 21.0957 15.963 20.9508 16.0708C20.5255 16.3821 19.7644 16.6718 18.9909 16.8104C18.5502 16.8906 18.1095 16.9029 17.977 16.8382C17.8907 16.795 17.8784 16.7611 17.9092 16.6502C17.9739 16.4191 18.1835 16.1664 18.5101 15.9291C18.6765 15.8089 19.3514 15.399 19.6657 15.2265C20.1835 14.9429 20.6026 14.7735 20.8861 14.7334C20.9755 14.7211 21.0833 14.718 21.1172 14.7334C21.1727 14.755 21.2343 14.9183 21.259 15.1155C21.2713 15.2203 21.2651 15.6825 21.2497 15.7658Z" fill="black"/>
<path d="M13.9892 16.7858C13.9707 16.8227 13.8783 16.8628 13.7735 16.8782C13.6687 16.8936 13.3482 16.8844 13.1664 16.8628C12.5131 16.7765 11.8197 16.5762 11.3143 16.3297C11.0308 16.191 10.8274 16.0523 10.6764 15.9013L10.5901 15.812L10.5809 15.6949C10.5655 15.4915 10.5686 15.171 10.5932 15.0569C10.6086 14.9614 10.6425 14.869 10.6887 14.7858C10.7134 14.7549 10.7134 14.7549 10.8243 14.7549C10.9599 14.7549 11.074 14.7765 11.2589 14.8351C11.6379 14.9522 12.2018 15.2357 12.889 15.6486C13.4561 15.9876 13.6687 16.154 13.832 16.3821C13.943 16.5238 14.0169 16.7241 13.9892 16.7858Z" fill="black"/>
<path d="M18.3528 21.0754C18.3528 21.0847 18.3158 21.2326 18.2696 21.4083C18.2234 21.5839 18.1864 21.7257 18.1864 21.7318C18.1525 21.7349 18.1217 21.738 18.0878 21.7349H17.9892L17.8536 22.0554C17.7796 22.2311 17.7118 22.3944 17.7026 22.4191L17.6841 22.4622L17.6194 22.3574L17.5547 22.2526V21.399L17.53 21.4052C17.4776 21.4175 17.1047 21.4668 16.9414 21.4822C16.2665 21.55 15.5886 21.5346 14.9168 21.4391C14.8089 21.4237 14.7164 21.4113 14.7134 21.4144C14.7103 21.4175 14.7134 21.6147 14.7195 21.8582L14.7288 22.2958L14.6764 22.3759C14.6486 22.4191 14.6209 22.456 14.6209 22.4591C14.6117 22.4684 14.5809 22.4191 14.51 22.2773C14.4329 22.1294 14.3775 21.9722 14.3374 21.8089L14.3158 21.7195L14.2203 21.7257L14.1248 21.7349L14.1001 21.6209C14.0878 21.5593 14.0724 21.4637 14.0662 21.4113L14.057 21.3127L13.9768 21.2419C13.9306 21.2018 13.8844 21.1617 13.8752 21.1556C13.8597 21.1432 13.8536 21.1217 13.8536 21.1032V21.0662L14.2388 21.0693L14.624 21.0724L14.6363 21.1124L14.6486 21.1525L14.7812 21.1587C14.8551 21.1617 15.0893 21.1679 15.2989 21.1741L15.6841 21.1833L15.7827 21.0292L15.8844 20.8751H16.0138L16.0107 20.5546L16.0077 20.2342L15.8382 20.1602C15.2927 19.9198 14.9722 19.6456 14.852 19.3127C14.8274 19.2449 14.8274 19.2203 14.8212 18.9121C14.8181 18.607 14.8181 18.5793 14.8397 18.5115C14.8829 18.3574 15.003 18.2372 15.1571 18.1972C15.2095 18.1818 15.3482 18.1818 16.0755 18.1818L16.9322 18.1848L17.0277 18.2311C17.1417 18.2865 17.1941 18.3266 17.2588 18.4129C17.3328 18.5115 17.3544 18.5885 17.3544 18.7765C17.3544 19.0446 17.3359 19.2758 17.3081 19.3682C17.2681 19.4946 17.2064 19.6147 17.1294 19.7226C16.9753 19.9198 16.6949 20.117 16.4391 20.2064L16.3651 20.2342L16.3682 20.5577L16.3713 20.8813L16.4391 20.8875L16.5069 20.8936L16.5993 21.0323L16.6887 21.171H17.1017C17.3297 21.171 17.53 21.1741 17.5485 21.1771C17.5793 21.1833 17.5855 21.1802 17.6163 21.1278L17.6533 21.0724H18.0077C18.2727 21.06 18.3528 21.0662 18.3528 21.0754Z" fill="black"/>
<path d="M16.7257 21.9599C16.6671 21.9938 16.6271 22.0092 16.6178 22.003C16.6086 22 16.5654 21.963 16.5192 21.9291L16.436 21.8613L16.3497 21.9537C16.1617 22.1571 16.1556 22.1664 16.1001 22.1695C16.0138 22.1787 15.9953 22.1633 15.8906 22.0061C15.8351 21.926 15.7919 21.8582 15.7919 21.8582C15.7919 21.8582 15.7519 21.852 15.7057 21.8489L15.6194 21.8397L15.5793 21.9229L15.5392 22.0061L15.4684 21.9845C15.4129 21.9661 15.3574 21.9445 15.305 21.9198L15.2126 21.8736V21.6979L16.0323 21.701L16.852 21.7041L16.8551 21.7873C16.8582 21.8859 16.8613 21.8828 16.7257 21.9599Z" fill="black"/>
<path d="M24.43 18.2002C24.427 18.1879 24.427 18.1663 24.4239 18.1324C23.6843 18.0523 21.5733 18.003 19.6134 19.6209C19.6134 19.6209 18.9817 16.7241 16.0233 16.7241C13.0649 16.7241 11.9678 19.6209 11.9678 19.6209C10.3099 17.8366 8.09106 17.966 7.28983 18.0831C7.28983 18.1016 7.28675 18.1232 7.28675 18.1417C7.26209 18.5885 7.27442 18.8012 7.34838 19.0816C7.5795 19.9599 8.29137 20.9275 9.40693 21.8767C11.2344 23.4298 13.712 24.5515 15.5887 24.681C17.5456 24.8135 20.4331 23.6702 22.3561 21.9999C22.6581 21.7318 22.9416 21.4483 23.2066 21.1463C23.3977 20.9244 23.6812 20.5423 23.6596 20.5423C23.6535 20.5423 23.6596 20.5361 23.672 20.53C23.6812 20.5238 23.6904 20.5146 23.6843 20.5084C23.6812 20.5053 23.6874 20.4961 23.6966 20.493C23.7059 20.4899 23.712 20.4838 23.7089 20.4776C23.7059 20.4714 23.7089 20.4653 23.7213 20.4622C23.7305 20.4591 23.7336 20.4499 23.7305 20.4437C23.7274 20.4375 23.7305 20.4314 23.7367 20.4314C23.7428 20.4314 23.749 20.4221 23.749 20.416C23.749 20.4098 23.7552 20.4005 23.7613 20.4005C23.7675 20.4005 23.7736 20.3944 23.7736 20.3882C23.7829 20.3636 23.7983 20.3389 23.8137 20.3173C23.8599 20.2465 24.0448 19.9167 24.0695 19.8613C24.2451 19.4637 24.3561 19.1093 24.4085 18.7549C24.427 18.5854 24.4424 18.2742 24.43 18.2002ZM16.7259 21.9599C16.6673 21.9938 16.6273 22.0092 16.618 22.003C16.6088 21.9999 16.5656 21.963 16.5194 21.9291L16.4362 21.8613L16.3499 21.9537C16.1619 22.1571 16.1558 22.1663 16.1003 22.1694C16.014 22.1787 15.9955 22.1633 15.8908 22.0061C15.8353 21.926 15.7921 21.8582 15.7921 21.8582C15.7921 21.8582 15.7521 21.852 15.7059 21.8489L15.6196 21.8397L15.5795 21.9229L15.5394 22.0061L15.4686 21.9845C15.4131 21.966 15.3576 21.9445 15.3052 21.9198L15.2128 21.8736V21.6979L16.0325 21.701L16.8522 21.7041L16.8553 21.7873C16.8584 21.8859 16.8615 21.8828 16.7259 21.9599ZM18.2667 21.4052C18.2205 21.5808 18.1835 21.7226 18.1835 21.7287C18.1496 21.7318 18.1188 21.7349 18.0849 21.7318H17.9863L17.8538 22.0554C17.7798 22.2311 17.712 22.3944 17.7028 22.419L17.6843 22.4622L17.6196 22.3574L17.5549 22.2526V21.399L17.5302 21.4052C17.4778 21.4175 17.1049 21.4668 16.9416 21.4822C16.2667 21.55 15.5887 21.5346 14.9169 21.4391C14.8091 21.4237 14.7166 21.4113 14.7136 21.4144C14.7105 21.4175 14.7136 21.6147 14.7197 21.8582L14.729 22.2958L14.6766 22.3759C14.6488 22.419 14.6211 22.456 14.6211 22.4591C14.6119 22.4683 14.581 22.419 14.5102 22.2773C14.4331 22.1294 14.3777 21.9722 14.3376 21.8089L14.316 21.7195L14.2205 21.7257L14.125 21.7349L14.1003 21.6209C14.088 21.5593 14.0726 21.4637 14.0664 21.4113L14.0572 21.3127L13.977 21.2418C13.9308 21.2018 13.8846 21.1617 13.8753 21.1556C13.8599 21.1432 13.8538 21.1217 13.8538 21.1032V21.0662L14.239 21.0693L14.6242 21.0723L14.6365 21.1124L14.6488 21.1525L14.7814 21.1586C14.8553 21.1617 15.0895 21.1679 15.2991 21.174L15.6843 21.1833L15.7829 21.0292L15.8846 20.8751H16.014L16.0109 20.5546L16.0079 20.2341L15.8384 20.1602C15.2929 19.9198 14.9724 19.6455 14.8522 19.3127C14.8276 19.2449 14.8276 19.2203 14.8214 18.9121C14.8183 18.607 14.8183 18.5793 14.8399 18.5115C14.883 18.3574 15.0032 18.2372 15.1573 18.1972C15.2097 18.1817 15.3484 18.1817 16.0757 18.1817L16.9324 18.1848L17.0279 18.2311C17.1419 18.2865 17.1943 18.3266 17.259 18.4129C17.333 18.5115 17.3545 18.5885 17.3545 18.7765C17.3545 19.0446 17.3361 19.2757 17.3083 19.3682C17.2683 19.4945 17.2066 19.6147 17.1296 19.7226C16.9755 19.9198 16.6951 20.117 16.4393 20.2064L16.3653 20.2341L16.3684 20.5577L16.3715 20.8813L16.4393 20.8874L16.5071 20.8936L16.5995 21.0323L16.6889 21.171H17.1018C17.3299 21.171 17.5302 21.174 17.5487 21.1771C17.5795 21.1833 17.5857 21.1802 17.6165 21.1278L17.6535 21.0723H18.0079C18.2821 21.0723 18.3622 21.0754 18.3622 21.0847C18.353 21.0816 18.3129 21.2326 18.2667 21.4052Z" fill="white"/>
<path d="M24.4052 17.8859C24.3991 17.7472 24.3867 17.5531 24.3775 17.4575C24.245 16.0585 23.8875 14.9152 23.2096 13.7041C23.1818 13.6579 23.1572 13.6116 23.1418 13.5747C23.1356 13.5654 23.1325 13.5562 23.1294 13.55C23.225 13.2634 23.6163 12.0646 23.9276 10.6933C24.3498 8.83198 24.6179 6.65633 23.7981 6.00301C23.7981 6.00301 22.3806 5.89824 20.4823 7.75956C19.9676 8.2742 19.4961 8.83198 19.077 9.42674L18.9445 9.3836C18.1803 9.13398 17.3883 8.9799 16.5901 8.92751C16.3498 8.90902 15.453 8.90902 15.1602 8.92751C14.2758 8.98606 13.5978 9.11857 12.8274 9.38668C12.7966 9.399 12.7689 9.40825 12.7411 9.41749C12.3066 8.82581 11.8228 8.27112 11.2897 7.76264C9.31433 5.89207 7.84437 5.99993 7.84437 5.99993C6.97534 6.67482 7.27118 8.94908 7.72111 10.872C8.01694 12.1448 8.38058 13.2634 8.51617 13.6671C8.50693 13.6887 8.4946 13.7133 8.48228 13.7349C7.76425 15.1894 7.37596 16.5916 7.28351 18.0831C8.08782 17.966 10.3035 17.8335 11.9646 19.6209C11.9646 19.6209 13.0616 16.7241 16.02 16.7241C18.9784 16.7241 19.6102 19.6209 19.6102 19.6209C21.5701 18.003 23.681 18.0554 24.4206 18.1324C24.4176 18.0708 24.4114 17.9783 24.4052 17.8859ZM9.09861 12.5053C9.09861 12.5053 7.94607 9.62397 8.24191 7.97836C8.29121 7.70101 8.38366 7.45756 8.5285 7.27266C8.5285 7.27266 9.83512 7.40209 11.943 9.74415C11.943 9.74415 11.5424 9.9383 11.0062 10.3512C11.0062 10.3512 11.0031 10.3543 11 10.3543C10.4176 10.8012 9.6718 11.5099 9.09861 12.5053ZM13.9892 16.7857C13.9707 16.8227 13.8783 16.8628 13.7735 16.8782C13.6687 16.8936 13.3482 16.8844 13.1664 16.8628C12.5131 16.7765 11.8197 16.5762 11.3143 16.3297C11.0308 16.191 10.8274 16.0523 10.6764 15.9013L10.5901 15.8119L10.5809 15.6948C10.5655 15.4914 10.5686 15.171 10.5932 15.0569C10.6086 14.9614 10.6425 14.869 10.6887 14.7857C10.7134 14.7549 10.7134 14.7549 10.8243 14.7549C10.9599 14.7549 11.074 14.7765 11.2589 14.8351C11.6379 14.9522 12.2018 15.2357 12.8891 15.6486C13.4561 15.9876 13.6687 16.154 13.832 16.382C13.943 16.5238 14.0169 16.7241 13.9892 16.7857ZM21.2496 15.7657C21.2404 15.815 21.0955 15.9629 20.9507 16.0708C20.5254 16.382 19.7642 16.6717 18.9908 16.8104C18.5501 16.8905 18.1094 16.9028 17.9769 16.8381C17.8906 16.795 17.8783 16.7611 17.9091 16.6502C17.9738 16.419 18.1834 16.1663 18.51 15.929C18.6764 15.8089 19.3513 15.399 19.6656 15.2264C20.1834 14.9429 20.6025 14.7734 20.886 14.7334C20.9753 14.721 21.0832 14.718 21.1171 14.7334C21.1726 14.7549 21.2342 14.9183 21.2589 15.1155C21.2712 15.2203 21.265 15.6825 21.2496 15.7657ZM20.7381 10.3512L20.7319 10.3482C20.2142 9.93521 19.8259 9.74107 19.8259 9.74107C21.8629 7.39901 23.1233 7.26958 23.1233 7.26958C23.2619 7.45756 23.3513 7.69793 23.4006 7.97528C23.6872 9.62088 22.5747 12.5053 22.5747 12.5053C22.1094 11.6764 21.4838 10.9429 20.7381 10.3512Z" fill="#FFA409"/>
<path d="M23.4039 7.97529C23.1636 7.94448 22.0264 7.93831 20.7383 10.3513L20.7321 10.3482C20.2144 9.93523 19.8261 9.74109 19.8261 9.74109C21.8631 7.39902 23.1235 7.26959 23.1235 7.26959C23.2652 7.45757 23.3546 7.69794 23.4039 7.97529Z" fill="#FF9300"/>
<path d="M22.5779 12.5053C22.1095 11.6733 21.487 10.9429 20.7382 10.3513C22.0263 7.93832 23.1603 7.94448 23.4038 7.9753C23.6904 9.62399 22.5779 12.5053 22.5779 12.5053Z" fill="#FF8300"/>
<path d="M23.45 7.98453C23.4346 7.98144 23.4192 7.97836 23.4038 7.97528L23.45 7.98453Z" fill="#FF8300"/>
<path d="M11.9429 9.74109C11.9429 9.74109 11.5423 9.93523 11.0061 10.3482C11.0061 10.3482 11.003 10.3513 10.9999 10.3513C9.66558 7.93523 8.49147 7.94448 8.23877 7.97529C8.28808 7.69794 8.38053 7.45449 8.52537 7.26959C8.52845 7.26959 9.83507 7.39902 11.9429 9.74109Z" fill="#FF9300"/>
<path d="M11.003 10.3513C10.4175 10.8012 9.67175 11.5069 9.09856 12.5053C9.09856 12.5053 7.94602 9.62399 8.24186 7.9753C8.49147 7.94448 9.66867 7.93832 11.003 10.3513Z" fill="#FF8300"/>
<path d="M8.24187 7.97528C8.22646 7.97836 8.20797 7.98144 8.19257 7.98453L8.24187 7.97528Z" fill="#FF8300"/>
<path d="M19.4593 14.1047C19.4593 14.1047 18.4732 14.1663 18.5965 13.3959C18.7197 12.6255 19.4902 12.533 19.7059 12.5638C19.9216 12.5946 20.7845 12.9028 20.6304 13.55C20.4763 14.1971 20.2606 14.0738 20.1373 14.1047C20.014 14.1355 19.4593 14.1047 19.4593 14.1047Z" fill="white"/>
<path d="M12.1864 14.1047C12.1864 14.1047 11.2003 14.1663 11.3236 13.3959C11.4469 12.6255 12.2173 12.533 12.433 12.5638C12.6487 12.5946 13.5115 12.9028 13.3575 13.55C13.2034 14.1971 12.9877 14.0738 12.8644 14.1047C12.7411 14.1355 12.1864 14.1047 12.1864 14.1047Z" fill="white"/>
</g>
<defs>
<clipPath id="clip0_73_153">
<rect width="19.775" height="20" fill="white" transform="translate(6 6)"/>
</clipPath>
</defs>
</svg>
