<svg width="20" height="20" viewBox="0 0 20 20" fill="none" xmlns="http://www.w3.org/2000/svg">
<path d="M14.4793 1.75959C13.9646 2.27423 13.4932 2.83201 13.074 3.42677L12.9415 3.38363C12.1773 3.13401 11.3853 2.97993 10.5871 2.92754C10.3468 2.90905 9.45001 2.90905 9.15725 2.92754C8.27281 2.98609 7.59485 3.1186 6.82443 3.38671C6.79362 3.39904 6.76588 3.40828 6.73815 3.41753C6.30363 2.82585 5.81981 2.27115 5.28668 1.76267C7.84446 0.452966 10.8368 0.295801 13.5147 1.32816C13.8013 1.43602 14.0817 1.56236 14.356 1.69796L14.4793 1.75959Z" fill="#F00500"/>
<path d="M19.2496 13.4484C18.8614 14.5547 18.2789 15.5809 17.5239 16.4746C17.1141 16.9553 16.6611 17.396 16.1741 17.7966C15.0339 18.7149 13.7027 19.3713 12.282 19.7165C10.7104 20.0955 9.07091 20.0955 7.49926 19.7165C6.07553 19.3713 4.74734 18.7149 3.60712 17.7966C3.12022 17.396 2.66721 16.9553 2.25735 16.4746C0.0847772 13.9075 -0.574699 10.3821 0.531618 7.20492C0.741172 6.61632 1.00311 6.04929 1.31744 5.51C1.46228 5.26347 1.64102 4.98612 1.72731 4.8721C2.02315 6.14483 2.38678 7.26347 2.52237 7.66717C2.51313 7.68874 2.5008 7.71339 2.48848 7.73497C1.77045 9.18951 1.38216 10.5917 1.28971 12.0832C1.28971 12.1017 1.28663 12.1233 1.28663 12.1417C1.26197 12.5886 1.2743 12.8012 1.34826 13.0817C1.57938 13.9599 2.29125 14.9276 3.40681 15.8767C5.23424 17.4299 7.7119 18.5516 9.58863 18.681C11.5455 18.8136 14.433 17.6703 16.356 16C16.658 15.7319 16.9415 15.4484 17.2065 15.1464C17.3976 14.9245 17.6811 14.5424 17.6595 14.5424C17.6533 14.5424 17.6595 14.5362 17.6718 14.53C17.6811 14.5239 17.6903 14.5146 17.6842 14.5085C17.6811 14.5054 17.6872 14.4961 17.6965 14.4931C17.7057 14.49 17.7119 14.4838 17.7088 14.4777C17.7057 14.4715 17.7088 14.4653 17.7211 14.4622C17.7304 14.4592 17.7335 14.4499 17.7304 14.4438C17.7273 14.4376 17.7304 14.4314 17.7366 14.4314C17.7427 14.4314 17.7489 14.4222 17.7489 14.416C17.7489 14.4099 17.755 14.4006 17.7612 14.4006C17.7674 14.4006 17.7735 14.3944 17.7735 14.3883C17.7828 14.3636 17.7982 14.339 17.8136 14.3174C17.8598 14.2465 18.0447 13.9168 18.0694 13.8613C18.245 13.4638 18.356 13.1094 18.4084 12.755C18.433 12.5855 18.4484 12.2743 18.4361 12.2003C18.433 12.188 18.433 12.1664 18.4299 12.1325C18.4238 12.0709 18.4207 11.9784 18.4145 11.886C18.4084 11.7473 18.396 11.5532 18.3868 11.4576C18.2543 10.0585 17.8968 8.91524 17.2188 7.70415C17.1911 7.65792 17.1664 7.6117 17.151 7.57472C17.1449 7.56547 17.1418 7.55623 17.1387 7.55007C17.2342 7.26347 17.6256 6.0647 17.9369 4.69336L17.943 4.69952L17.9892 4.76116C18.0694 4.86901 18.282 5.18951 18.3775 5.34359C18.8121 6.05237 19.151 6.81355 19.3914 7.60862C19.9492 9.52233 19.903 11.5624 19.2496 13.4484Z" fill="#F00500"/>
<path d="M15.2497 9.76575C15.2405 9.81506 15.0957 9.96298 14.9508 10.0708C14.5255 10.3821 13.7644 10.6718 12.9909 10.8104C12.5502 10.8906 12.1095 10.9029 11.977 10.8382C11.8907 10.795 11.8784 10.7611 11.9092 10.6502C11.9739 10.4191 12.1835 10.1664 12.5101 9.92908C12.6765 9.8089 13.3514 9.39904 13.6657 9.22646C14.1835 8.94295 14.6026 8.77346 14.8861 8.73339C14.9755 8.72107 15.0833 8.71799 15.1172 8.73339C15.1727 8.75497 15.2343 8.91829 15.259 9.11552C15.2713 9.2203 15.2651 9.68255 15.2497 9.76575Z" fill="black"/>
<path d="M7.98919 10.7858C7.97071 10.8227 7.87826 10.8628 7.77348 10.8782C7.6687 10.8936 7.34821 10.8844 7.1664 10.8628C6.51309 10.7765 5.81972 10.5762 5.31432 10.3297C5.03081 10.191 4.82742 10.0523 4.67642 9.90132L4.59014 9.81196L4.58089 9.69485C4.56548 9.49146 4.56856 9.17097 4.59322 9.05695C4.60863 8.96142 4.64252 8.86897 4.68875 8.78576C4.7134 8.75494 4.7134 8.75494 4.82434 8.75494C4.95993 8.75494 5.07395 8.77652 5.25885 8.83507C5.6379 8.95217 6.20184 9.23568 6.88905 9.64863C7.45607 9.98761 7.6687 10.154 7.83203 10.3821C7.94297 10.5238 8.01693 10.7241 7.98919 10.7858Z" fill="black"/>
<path d="M12.3528 15.0754C12.3528 15.0847 12.3158 15.2326 12.2696 15.4083C12.2234 15.5839 12.1864 15.7257 12.1864 15.7318C12.1525 15.7349 12.1217 15.738 12.0878 15.7349H11.9892L11.8536 16.0554C11.7796 16.2311 11.7118 16.3944 11.7026 16.4191L11.6841 16.4622L11.6194 16.3574L11.5547 16.2526V15.399L11.53 15.4052C11.4776 15.4175 11.1047 15.4668 10.9414 15.4822C10.2665 15.55 9.58855 15.5346 8.91675 15.4391C8.80889 15.4237 8.71644 15.4113 8.71336 15.4144C8.71028 15.4175 8.71336 15.6147 8.71953 15.8582L8.72877 16.2958L8.67638 16.3759C8.64865 16.4191 8.62091 16.456 8.62091 16.4591C8.61167 16.4684 8.58085 16.4191 8.50997 16.2773C8.43293 16.1294 8.37746 15.9722 8.3374 15.8089L8.31583 15.7195L8.2203 15.7257L8.12476 15.7349L8.10011 15.6209C8.08778 15.5593 8.07238 15.4637 8.06621 15.4113L8.05697 15.3127L7.97684 15.2419C7.93062 15.2018 7.8844 15.1617 7.87515 15.1556C7.85974 15.1432 7.85358 15.1217 7.85358 15.1032V15.0662L8.23878 15.0693L8.62399 15.0724L8.63632 15.1124L8.64865 15.1525L8.78116 15.1587C8.85512 15.1617 9.08932 15.1679 9.29888 15.1741L9.68409 15.1833L9.7827 15.0292L9.88439 14.8751H10.0138L10.0107 14.5546L10.0077 14.2342L9.83817 14.1602C9.29271 13.9198 8.97222 13.6456 8.85204 13.3127C8.82738 13.2449 8.82738 13.2203 8.82122 12.9121C8.81814 12.607 8.81814 12.5793 8.83971 12.5115C8.88285 12.3574 9.00304 12.2372 9.15712 12.1972C9.20951 12.1818 9.34819 12.1818 10.0755 12.1818L10.9322 12.1848L11.0277 12.2311C11.1417 12.2865 11.1941 12.3266 11.2588 12.4129C11.3328 12.5115 11.3544 12.5885 11.3544 12.7765C11.3544 13.0446 11.3359 13.2758 11.3081 13.3682C11.2681 13.4946 11.2064 13.6147 11.1294 13.7226C10.9753 13.9198 10.6949 14.117 10.4391 14.2064L10.3651 14.2342L10.3682 14.5577L10.3713 14.8813L10.4391 14.8875L10.5069 14.8936L10.5993 15.0323L10.6887 15.171H11.1017C11.3297 15.171 11.53 15.1741 11.5485 15.1771C11.5793 15.1833 11.5855 15.1802 11.6163 15.1278L11.6533 15.0724H12.0077C12.2727 15.06 12.3528 15.0662 12.3528 15.0754Z" fill="black"/>
<path d="M10.7257 15.9599C10.6671 15.9938 10.6271 16.0092 10.6178 16.003C10.6086 16 10.5654 15.963 10.5192 15.9291L10.436 15.8613L10.3497 15.9537C10.1617 16.1571 10.1556 16.1664 10.1001 16.1695C10.0138 16.1787 9.99533 16.1633 9.89055 16.0061C9.83508 15.926 9.79194 15.8582 9.79194 15.8582C9.79194 15.8582 9.75188 15.852 9.70565 15.8489L9.61936 15.8397L9.5793 15.9229L9.53924 16.0061L9.46836 15.9845C9.41289 15.9661 9.35742 15.9445 9.30504 15.9198L9.21259 15.8736V15.6979L10.0323 15.701L10.852 15.7041L10.8551 15.7873C10.8582 15.8859 10.8613 15.8828 10.7257 15.9599Z" fill="black"/>
<path d="M18.43 12.2002C18.427 12.1879 18.427 12.1663 18.4239 12.1324C17.6843 12.0523 15.5733 12.003 13.6134 13.6209C13.6134 13.6209 12.9817 10.7241 10.0233 10.7241C7.06487 10.7241 5.96779 13.6209 5.96779 13.6209C4.30986 11.8366 2.09106 11.966 1.28983 12.0831C1.28983 12.1016 1.28675 12.1232 1.28675 12.1417C1.26209 12.5885 1.27442 12.8012 1.34838 13.0816C1.5795 13.9599 2.29137 14.9275 3.40693 15.8767C5.23436 17.4298 7.71202 18.5515 9.58875 18.681C11.5456 18.8135 14.4331 17.6702 16.3561 15.9999C16.6581 15.7318 16.9416 15.4483 17.2066 15.1463C17.3977 14.9244 17.6812 14.5423 17.6596 14.5423C17.6535 14.5423 17.6596 14.5361 17.672 14.53C17.6812 14.5238 17.6904 14.5146 17.6843 14.5084C17.6812 14.5053 17.6874 14.4961 17.6966 14.493C17.7059 14.4899 17.712 14.4838 17.7089 14.4776C17.7059 14.4714 17.7089 14.4653 17.7213 14.4622C17.7305 14.4591 17.7336 14.4499 17.7305 14.4437C17.7274 14.4375 17.7305 14.4314 17.7367 14.4314C17.7428 14.4314 17.749 14.4221 17.749 14.416C17.749 14.4098 17.7552 14.4005 17.7613 14.4005C17.7675 14.4005 17.7736 14.3944 17.7736 14.3882C17.7829 14.3636 17.7983 14.3389 17.8137 14.3173C17.8599 14.2465 18.0448 13.9167 18.0695 13.8613C18.2451 13.4637 18.3561 13.1093 18.4085 12.7549C18.427 12.5854 18.4424 12.2742 18.43 12.2002ZM10.7259 15.9599C10.6673 15.9938 10.6273 16.0092 10.618 16.003C10.6088 15.9999 10.5656 15.963 10.5194 15.9291L10.4362 15.8613L10.3499 15.9537C10.1619 16.1571 10.1558 16.1663 10.1003 16.1694C10.014 16.1787 9.99553 16.1633 9.89075 16.0061C9.83528 15.926 9.79214 15.8582 9.79214 15.8582C9.79214 15.8582 9.75208 15.852 9.70585 15.8489L9.61957 15.8397L9.5795 15.9229L9.53944 16.0061L9.46856 15.9845C9.41309 15.966 9.35763 15.9445 9.30524 15.9198L9.21279 15.8736V15.6979L10.0325 15.701L10.8522 15.7041L10.8553 15.7873C10.8584 15.8859 10.8615 15.8828 10.7259 15.9599ZM12.2667 15.4052C12.2205 15.5808 12.1835 15.7226 12.1835 15.7287C12.1496 15.7318 12.1188 15.7349 12.0849 15.7318H11.9863L11.8538 16.0554C11.7798 16.2311 11.712 16.3944 11.7028 16.419L11.6843 16.4622L11.6196 16.3574L11.5549 16.2526V15.399L11.5302 15.4052C11.4778 15.4175 11.1049 15.4668 10.9416 15.4822C10.2667 15.55 9.58875 15.5346 8.91695 15.4391C8.80909 15.4237 8.71664 15.4113 8.71356 15.4144C8.71047 15.4175 8.71356 15.6147 8.71972 15.8582L8.72897 16.2958L8.67658 16.3759C8.64884 16.419 8.62111 16.456 8.62111 16.4591C8.61186 16.4683 8.58105 16.419 8.51017 16.2773C8.43313 16.1294 8.37766 15.9722 8.3376 15.8089L8.31602 15.7195L8.22049 15.7257L8.12496 15.7349L8.10031 15.6209C8.08798 15.5593 8.07257 15.4637 8.06641 15.4113L8.05716 15.3127L7.97704 15.2418C7.93081 15.2018 7.88459 15.1617 7.87535 15.1556C7.85994 15.1432 7.85377 15.1217 7.85377 15.1032V15.0662L8.23898 15.0693L8.62419 15.0723L8.63652 15.1124L8.64884 15.1525L8.78136 15.1586C8.85532 15.1617 9.08952 15.1679 9.29907 15.174L9.68428 15.1833L9.7829 15.0292L9.88459 14.8751H10.014L10.0109 14.5546L10.0079 14.2341L9.83836 14.1602C9.29291 13.9198 8.97242 13.6455 8.85223 13.3127C8.82758 13.2449 8.82758 13.2203 8.82141 12.9121C8.81833 12.607 8.81833 12.5793 8.8399 12.5115C8.88305 12.3574 9.00323 12.2372 9.15732 12.1972C9.20971 12.1817 9.34838 12.1817 10.0757 12.1817L10.9324 12.1848L11.0279 12.2311C11.1419 12.2865 11.1943 12.3266 11.259 12.4129C11.333 12.5115 11.3545 12.5885 11.3545 12.7765C11.3545 13.0446 11.3361 13.2757 11.3083 13.3682C11.2683 13.4945 11.2066 13.6147 11.1296 13.7226C10.9755 13.9198 10.6951 14.117 10.4393 14.2064L10.3653 14.2341L10.3684 14.5577L10.3715 14.8813L10.4393 14.8874L10.5071 14.8936L10.5995 15.0323L10.6889 15.171H11.1018C11.3299 15.171 11.5302 15.174 11.5487 15.1771C11.5795 15.1833 11.5857 15.1802 11.6165 15.1278L11.6535 15.0723H12.0079C12.2821 15.0723 12.3622 15.0754 12.3622 15.0847C12.353 15.0816 12.3129 15.2326 12.2667 15.4052Z" fill="white"/>
<path d="M18.4052 11.8859C18.3991 11.7472 18.3867 11.5531 18.3775 11.4575C18.245 10.0585 17.8875 8.91518 17.2096 7.70408C17.1818 7.65786 17.1572 7.61163 17.1418 7.57465C17.1356 7.56541 17.1325 7.55616 17.1294 7.55C17.225 7.26341 17.6163 6.06464 17.9276 4.6933C18.3498 2.83198 18.6179 0.656326 17.7981 0.00301425C17.7981 0.00301425 16.3806 -0.101762 14.4823 1.75956C13.9676 2.2742 13.4961 2.83198 13.077 3.42674L12.9445 3.3836C12.1803 3.13398 11.3883 2.9799 10.5901 2.92751C10.3498 2.90902 9.453 2.90902 9.16024 2.92751C8.2758 2.98606 7.59784 3.11857 6.82742 3.38668C6.79661 3.399 6.76887 3.40825 6.74114 3.41749C6.30662 2.82581 5.8228 2.27112 5.28967 1.76264C3.31433 -0.107925 1.84437 -6.76013e-05 1.84437 -6.76013e-05C0.975342 0.674816 1.27118 2.94908 1.72111 4.87204C2.01694 6.14476 2.38058 7.26341 2.51617 7.6671C2.50693 7.68868 2.4946 7.71333 2.48228 7.7349C1.76425 9.18944 1.37596 10.5916 1.28351 12.0831C2.08782 11.966 4.30354 11.8335 5.96456 13.6209C5.96456 13.6209 7.06163 10.7241 10.02 10.7241C12.9784 10.7241 13.6102 13.6209 13.6102 13.6209C15.5701 12.003 17.681 12.0554 18.4206 12.1324C18.4176 12.0708 18.4114 11.9783 18.4052 11.8859ZM3.09861 6.50532C3.09861 6.50532 1.94607 3.62397 2.24191 1.97836C2.29121 1.70101 2.38366 1.45756 2.5285 1.27266C2.5285 1.27266 3.83512 1.40209 5.94298 3.74415C5.94298 3.74415 5.54237 3.9383 5.00616 4.35124C5.00616 4.35124 5.00308 4.35432 4.99999 4.35432C4.41756 4.80116 3.6718 5.50994 3.09861 6.50532ZM7.98921 10.7857C7.97072 10.8227 7.87827 10.8628 7.77349 10.8782C7.66872 10.8936 7.34822 10.8844 7.16641 10.8628C6.51309 10.7765 5.81972 10.5762 5.31433 10.3297C5.03081 10.191 4.82742 10.0523 4.67642 9.90131L4.59014 9.81194L4.58089 9.69484C4.56548 9.49145 4.56856 9.17096 4.59322 9.05693C4.60862 8.9614 4.64252 8.86895 4.68875 8.78575C4.7134 8.75493 4.7134 8.75493 4.82434 8.75493C4.95993 8.75493 5.07396 8.7765 5.25886 8.83505C5.6379 8.95216 6.20185 9.23567 6.88906 9.64861C7.45608 9.98759 7.66872 10.154 7.83205 10.382C7.94298 10.5238 8.01694 10.7241 7.98921 10.7857ZM15.2496 9.76572C15.2404 9.81502 15.0955 9.96294 14.9507 10.0708C14.5254 10.382 13.7642 10.6717 12.9908 10.8104C12.5501 10.8905 12.1094 10.9028 11.9769 10.8381C11.8906 10.795 11.8783 10.7611 11.9091 10.6502C11.9738 10.419 12.1834 10.1663 12.51 9.92904C12.6764 9.80886 13.3513 9.399 13.6656 9.22643C14.1834 8.94291 14.6025 8.77342 14.886 8.73336C14.9753 8.72103 15.0832 8.71795 15.1171 8.73336C15.1726 8.75493 15.2342 8.91826 15.2589 9.11548C15.2712 9.22026 15.265 9.68251 15.2496 9.76572ZM14.7381 4.35124L14.7319 4.34816C14.2142 3.93521 13.8259 3.74107 13.8259 3.74107C15.8629 1.39901 17.1233 1.26958 17.1233 1.26958C17.2619 1.45756 17.3513 1.69793 17.4006 1.97528C17.6872 3.62088 16.5747 6.50532 16.5747 6.50532C16.1094 5.67635 15.4838 4.94292 14.7381 4.35124Z" fill="#FFA409"/>
<path d="M17.4039 1.97529C17.1636 1.94448 16.0264 1.93831 14.7383 4.35126L14.7321 4.34817C14.2144 3.93523 13.8261 3.74109 13.8261 3.74109C15.8631 1.39902 17.1235 1.26959 17.1235 1.26959C17.2652 1.45757 17.3546 1.69794 17.4039 1.97529Z" fill="#FF9300"/>
<path d="M16.5779 6.50534C16.1095 5.6733 15.487 4.94294 14.7382 4.35126C16.0263 1.93832 17.1603 1.94448 17.4038 1.9753C17.6904 3.62399 16.5779 6.50534 16.5779 6.50534Z" fill="#FF8300"/>
<path d="M17.45 1.98453C17.4346 1.98144 17.4192 1.97836 17.4038 1.97528L17.45 1.98453Z" fill="#FF8300"/>
<path d="M5.94293 3.74109C5.94293 3.74109 5.54231 3.93523 5.00611 4.34817C5.00611 4.34817 5.00302 4.35126 4.99994 4.35126C3.66558 1.93523 2.49147 1.94448 2.23877 1.97529C2.28808 1.69794 2.38053 1.45449 2.52537 1.26959C2.52845 1.26959 3.83507 1.39902 5.94293 3.74109Z" fill="#FF9300"/>
<path d="M5.00302 4.35126C4.41751 4.80119 3.67175 5.50689 3.09856 6.50534C3.09856 6.50534 1.94602 3.62399 2.24186 1.9753C2.49147 1.94448 3.66867 1.93832 5.00302 4.35126Z" fill="#FF8300"/>
<path d="M2.24187 1.97528C2.22646 1.97836 2.20797 1.98144 2.19257 1.98453L2.24187 1.97528Z" fill="#FF8300"/>
<path d="M13.4593 8.10465C13.4593 8.10465 12.4732 8.16628 12.5965 7.39587C12.7197 6.62546 13.4902 6.53302 13.7059 6.56383C13.9216 6.59465 14.7845 6.90281 14.6304 7.54996C14.4763 8.1971 14.2606 8.07384 14.1373 8.10465C14.014 8.13547 13.4593 8.10465 13.4593 8.10465Z" fill="white"/>
<path d="M6.18645 8.10465C6.18645 8.10465 5.20033 8.16628 5.32359 7.39587C5.44686 6.62546 6.21726 6.53302 6.43298 6.56383C6.64869 6.59465 7.51155 6.90281 7.35747 7.54996C7.20339 8.1971 6.98767 8.07384 6.86441 8.10465C6.74114 8.13547 6.18645 8.10465 6.18645 8.10465Z" fill="white"/>
</svg>
