<svg width="32" height="32" viewBox="0 0 32 32" fill="none" xmlns="http://www.w3.org/2000/svg">
<rect width="32" height="32" rx="6" fill="white"/>
<path d="M16.1562 13.311V6L22.0938 16L16.1562 13.311ZM16.1562 6V13.3075L9.90625 16L16.1562 6Z" fill="#828384"/>
<path d="M16.1562 13.5L22.0938 16.2353L16.1562 19.75V13.5ZM9.90625 16.2344L16.1562 13.5V19.75L9.90625 16.2344Z" fill="#343535"/>
<path d="M16.1562 21.1699L22.0938 17.5625L16.1562 26V21.1699ZM9.90625 17.5625L16.1562 21.1704V26L9.90625 17.5625Z" fill="#828384"/>
<path d="M22.0938 16L16.1562 13.311V6L22.0938 16Z" fill="#2F3030"/>
<path d="M22.0938 16.2352L16.1562 13.5V19.75L22.0938 16.2352Z" fill="#131313"/>
<path d="M22.0938 17.5625L16.1562 21.1699V26L22.0938 17.5625Z" fill="#2F3030"/>
</svg>
