<svg width="32" height="32" viewBox="0 0 32 32" fill="none" xmlns="http://www.w3.org/2000/svg">
<rect width="32" height="32" rx="6" fill="white"/>
<g clip-path="url(#clip0_73_165)">
<path d="M16 6C17.9778 6 19.9112 6.58649 21.5557 7.6853C23.2002 8.78412 24.4819 10.3459 25.2388 12.1732C25.9957 14.0004 26.1937 16.0111 25.8079 17.9509C25.422 19.8907 24.4696 21.6725 23.0711 23.0711C21.6725 24.4696 19.8907 25.422 17.9509 25.8079C16.0111 26.1937 14.0004 25.9957 12.1732 25.2388C10.3459 24.4819 8.78412 23.2002 7.6853 21.5557C6.58649 19.9112 6 17.9778 6 16C6 13.3478 7.05357 10.8043 8.92893 8.92893C10.8043 7.05357 13.3478 6 16 6" fill="#53AE94"/>
<path d="M17.2351 22.093H14.7748V17.3284C13.4259 17.2659 12.1977 17.0998 11.3163 16.8607C10.9609 16.7749 10.6188 16.6414 10.2993 16.4638C10.055 16.3145 9.93109 16.1573 9.93109 15.997C9.93109 15.8366 10.0549 15.6795 10.2991 15.5302C10.6187 15.3525 10.9608 15.219 11.3162 15.1333C12.1977 14.8941 13.426 14.7283 14.7748 14.6663V13.1799H11.3729V10.9134H20.6361V13.1799H17.2343V14.6676L17.2351 14.668C18.5817 14.7305 19.8078 14.896 20.6875 15.1349C21.0422 15.2206 21.3837 15.354 21.7026 15.5315C21.9463 15.6807 22.0698 15.8376 22.0698 15.9979C22.0698 16.1582 21.9462 16.3152 21.7026 16.4643C21.3837 16.6418 21.0422 16.7753 20.6875 16.8609C19.8078 17.0999 18.5817 17.2658 17.2351 17.328V22.093ZM14.7763 16.9227C14.8601 16.9271 15.3136 16.949 16.015 16.949C16.7454 16.949 17.1115 16.9309 17.235 16.9232V16.9244L17.2354 16.9234C18.4252 16.8703 19.5057 16.7384 20.2779 16.5519C20.5868 16.4859 20.8865 16.3822 21.1701 16.243C21.3841 16.1272 21.4926 16.0055 21.4926 15.8815C21.4926 15.7574 21.3841 15.6358 21.1702 15.52C20.8867 15.3808 20.5871 15.2771 20.2782 15.2112C19.5062 15.0248 18.4255 14.8929 17.2353 14.8398V16.5009C17.165 16.5073 16.777 16.539 16.0253 16.539C15.3953 16.539 14.9419 16.5124 14.7762 16.5009V14.84C13.583 14.893 12.5002 15.0246 11.7271 15.2109C11.4175 15.2767 11.1173 15.3805 10.8331 15.5198C10.6186 15.6358 10.5101 15.7577 10.5101 15.8821C10.5101 16.0066 10.6186 16.1286 10.8332 16.2446C11.1173 16.3841 11.4176 16.488 11.7271 16.554C12.5005 16.7404 13.5832 16.8721 14.7762 16.9249V16.923L14.7763 16.9227Z" fill="white"/>
</g>
<defs>
<clipPath id="clip0_73_165">
<rect width="20" height="20" fill="white" transform="translate(6 6)"/>
</clipPath>
</defs>
</svg>
