<svg width="20" height="20" viewBox="0 0 20 20" fill="none" xmlns="http://www.w3.org/2000/svg">
<path d="M10.1562 7.31102V0L16.0938 10L10.1562 7.31102ZM10.1562 0V7.3075L3.90625 10L10.1562 0Z" fill="#828384"/>
<path d="M10.1562 7.5L16.0938 10.2353L10.1562 13.75V7.5ZM3.90625 10.2344L10.1562 7.5V13.75L3.90625 10.2344Z" fill="#343535"/>
<path d="M10.1562 15.1699L16.0938 11.5625L10.1562 20V15.1699ZM3.90625 11.5625L10.1562 15.1704V20L3.90625 11.5625Z" fill="#828384"/>
<path d="M16.0938 10L10.1562 7.31102V0L16.0938 10Z" fill="#2F3030"/>
<path d="M16.0938 10.2352L10.1562 7.5V13.75L16.0938 10.2352Z" fill="#131313"/>
<path d="M16.0938 11.5625L10.1562 15.1699V20L16.0938 11.5625Z" fill="#2F3030"/>
</svg>
