<svg width="20" height="20" viewBox="0 0 20 20" fill="none" xmlns="http://www.w3.org/2000/svg">
<path d="M10 20C15.5417 20 20 15.5417 20 10C20 4.4583 15.5417 0 10 0C4.4583 0 0 4.4583 0 10C0 15.5417 4.4583 20 10 20Z" fill="#2775CA"/>
<path d="M12.7501 11.5833C12.7501 10.125 11.8751 9.62498 10.1251 9.41668C8.87511 9.24998 8.62511 8.91668 8.62511 8.33328C8.62511 7.74988 9.0418 7.37498 9.8751 7.37498C10.6251 7.37498 11.0418 7.62498 11.2501 8.24998C11.2918 8.37498 11.4168 8.45828 11.5418 8.45828H12.2084C12.3751 8.45828 12.5001 8.33328 12.5001 8.16668V8.12498C12.3334 7.20828 11.5834 6.49998 10.6251 6.41668V5.41668C10.6251 5.24998 10.5001 5.12498 10.2918 5.08328H9.6668C9.5001 5.08328 9.3751 5.20828 9.3334 5.41668V6.37498C8.08341 6.54168 7.29181 7.37498 7.29181 8.41668C7.29181 9.79168 8.12511 10.3333 9.8751 10.5417C11.0418 10.75 11.4168 11 11.4168 11.6667C11.4168 12.3334 10.8334 12.7917 10.0418 12.7917C8.9584 12.7917 8.58341 12.3333 8.45841 11.7083C8.41681 11.5417 8.29181 11.4583 8.16681 11.4583H7.45841C7.29181 11.4583 7.16681 11.5833 7.16681 11.75V11.7917C7.33341 12.8333 8.00011 13.5833 9.3751 13.7917V14.7917C9.3751 14.9583 9.5001 15.0833 9.7084 15.125H10.3334C10.5001 15.125 10.6251 15 10.6668 14.7917V13.7917C11.9168 13.5833 12.7501 12.7083 12.7501 11.5833Z" fill="white"/>
<path d="M7.87496 15.9583C4.62496 14.7917 2.95826 11.1667 4.16666 7.95832C4.79166 6.20832 6.16666 4.87502 7.87496 4.25002C8.04166 4.16672 8.12496 4.04172 8.12496 3.83332V3.25002C8.12496 3.08332 8.04166 2.95832 7.87496 2.91672C7.83326 2.91672 7.74996 2.91672 7.70826 2.95832C3.74996 4.20832 1.58326 8.41672 2.83326 12.375C3.58326 14.7083 5.37496 16.5 7.70826 17.25C7.87496 17.3333 8.04166 17.25 8.08326 17.0833C8.12496 17.0417 8.12496 17 8.12496 16.9167V16.3333C8.12496 16.2083 7.99996 16.0417 7.87496 15.9583ZM12.2917 2.95832C12.125 2.87502 11.9583 2.95832 11.9167 3.12502C11.875 3.16672 11.875 3.20832 11.875 3.29172V3.87502C11.875 4.04172 12 4.20832 12.125 4.29172C15.375 5.45832 17.0417 9.08332 15.8333 12.2917C15.2083 14.0417 13.8333 15.375 12.125 16C11.9583 16.0833 11.875 16.2083 11.875 16.4167V17C11.875 17.1667 11.9583 17.2917 12.125 17.3333C12.1667 17.3333 12.25 17.3333 12.2917 17.2917C16.25 16.0417 18.4167 11.8333 17.1667 7.87502C16.4167 5.50002 14.5833 3.70832 12.2917 2.95832Z" fill="white"/>
</svg>
