<svg width="21" height="21" viewBox="0 0 21 21" fill="none" xmlns="http://www.w3.org/2000/svg">
<path d="M10.081 1.04107C8.14703 1.22079 6.23263 1.99827 4.72846 3.21333C4.25181 3.60011 3.55637 4.29555 3.1774 4.76829C2.3296 5.82707 1.64197 7.21794 1.30989 8.53848C0.716031 10.8944 0.973889 13.2815 2.05611 15.4499C2.56401 16.4735 3.09145 17.2119 3.90018 18.0284C5.58017 19.728 7.7407 20.7438 10.1396 20.9586C12.6674 21.1891 15.285 20.3921 17.2697 18.7864C17.7464 18.3996 18.4418 17.7042 18.8208 17.2314C19.6686 16.1726 20.3562 14.7818 20.6883 13.4612C21.2821 11.1053 21.0243 8.7182 19.9421 6.54985C19.4342 5.52623 18.9067 4.78782 18.098 3.97127C17.2814 3.14691 16.4922 2.5765 15.4491 2.05687C13.7691 1.22079 11.9211 0.869164 10.081 1.04107ZM11.5265 5.61219C12.2649 5.88567 12.4915 6.94836 11.9328 7.51486C11.6359 7.81179 11.2101 7.94072 10.749 7.86649C10.3427 7.80398 10.0692 7.62035 9.88561 7.28045C9.78013 7.09292 9.7684 7.04213 9.7684 6.70222C9.7684 6.36232 9.78013 6.31153 9.88561 6.12399C9.94812 6.00679 10.0497 5.87004 10.1122 5.81925C10.4795 5.51061 11.0303 5.42856 11.5265 5.61219ZM11.4992 8.93699C11.7492 9.03076 12.0422 9.30424 12.1712 9.57382L12.2688 9.76917V12.7384V15.7077L12.1751 15.9031C12.0579 16.1336 11.8078 16.3953 11.5969 16.5008C11.0499 16.7821 10.3427 16.6219 9.97547 16.1375C9.69808 15.7702 9.70589 15.9148 9.71761 12.6759L9.72934 9.76917L9.8231 9.57382C9.94812 9.32768 10.2099 9.06201 10.4365 8.96434C10.7998 8.80025 11.1085 8.79243 11.4992 8.93699Z" fill="white"/>
</svg>
