<svg width="51" height="51" viewBox="0 0 51 51" fill="none" xmlns="http://www.w3.org/2000/svg">
<path d="M14.5815 24.1475C13.6914 23.7869 13.0635 22.9135 13.0635 21.8934V17.1023C13.0635 16.0955 13.6752 15.2316 14.547 14.8626C14.8375 14.7396 17.0249 14.8525 17.0249 17.1023V21.8934C17.025 24.207 14.8629 24.2614 14.5815 24.1475Z" fill="#F4B184"/>
<path d="M15.4928 14.6716C15.1706 14.6716 14.8633 14.7349 14.582 14.8489C15.4721 15.2095 16.1003 16.0822 16.1003 17.1023V21.8934C16.1003 22.9135 15.4721 23.7862 14.582 24.1469C14.8633 24.2608 15.1706 24.3242 15.4928 24.3242C16.8342 24.3242 17.9217 23.2359 17.9217 21.8934L18.8182 19.4979L17.9217 17.1024C17.9217 15.7599 16.8343 14.6716 15.4928 14.6716V14.6716Z" fill="#EAA678"/>
<path d="M19.4399 25.2462C18.5498 24.8858 17.9219 24.0131 17.9219 22.9938V14.8813C17.9219 13.8752 18.5336 13.012 19.4054 12.6432C19.6959 12.5203 21.8833 12.6331 21.8833 14.8813V22.9938C21.8833 25.2548 19.7212 25.36 19.4399 25.2462V25.2462Z" fill="#F4B184"/>
<path d="M20.3502 12.4523C20.028 12.4523 19.7207 12.5155 19.4395 12.6295C20.3296 12.9898 20.9577 13.8619 20.9577 14.8812V22.9937C20.9577 24.013 20.3296 24.8852 19.4395 25.2456C19.7207 25.3594 20.0279 25.4228 20.3502 25.4228C21.6917 25.4228 22.7792 24.3353 22.7792 22.9938L23.6756 18.9375L22.7792 14.8812C22.7792 13.5398 21.6917 12.4523 20.3502 12.4523V12.4523Z" fill="#EAA678"/>
<path d="M26.7408 24.5576C26.7408 26.8203 24.5786 26.9256 24.2973 26.8116C23.4072 26.4511 22.7793 25.5777 22.7793 24.5576V13.3497C22.7793 12.3429 23.391 11.479 24.2628 11.11C24.5533 10.987 26.7408 11.1 26.7408 13.3497V24.5576Z" fill="#F4B184"/>
<path d="M25.2086 10.9191C24.8864 10.9191 24.5791 10.9824 24.2979 11.0964C25.188 11.457 25.8161 12.3297 25.8161 13.3498V24.5576C25.8161 25.5777 25.188 26.4504 24.2979 26.811C24.5791 26.925 24.8864 26.9883 25.2086 26.9883C26.55 26.9883 27.6376 25.9001 27.6376 24.5576L28.534 18.9375L27.6376 13.3498C27.6376 12.0073 26.5501 10.9191 25.2086 10.9191V10.9191Z" fill="#EAA678"/>
<path d="M29.1557 26.1239C28.266 25.7667 27.6377 24.8961 27.6377 23.8787V11.5693C27.6377 10.5676 28.2468 9.70802 29.1148 9.34086C29.4042 9.21844 31.5992 9.3308 31.5992 11.5693V23.8787C31.5993 26.1323 29.434 26.2357 29.1557 26.1239Z" fill="#F4B184"/>
<path d="M30.0765 9.1508H30.0555C29.7373 9.1508 29.4336 9.21296 29.1553 9.32462C30.045 9.68182 30.6735 10.5519 30.6735 11.5693V23.8786C30.6735 24.8961 30.045 25.7661 29.1553 26.1233C29.4336 26.2351 29.7372 26.2972 30.0555 26.2972H30.0765C31.4122 26.2972 32.495 25.2144 32.495 23.8786V11.5693C32.495 10.2337 31.4121 9.1508 30.0765 9.1508V9.1508Z" fill="#EAA678"/>
<path d="M32.8534 16.486H31.9284H27.6374H25.6502C24.9396 16.486 24.3636 17.0847 24.3636 17.8233C24.3668 18.0162 24.3715 18.2218 24.4407 18.578C24.7234 19.9492 25.7612 21.0538 27.1266 21.3457L27.6373 21.4549L32.4953 22.4933V22.97C32.4953 24.3124 31.4077 25.4008 30.0663 25.4008C28.7249 25.4008 27.6373 24.3124 27.6373 22.97V22.9823V23.0942V23.6612C27.6373 25.0036 26.5498 26.092 25.2084 26.092C23.8668 26.092 22.7794 25.0037 22.7794 23.6612V22.0974C22.7794 23.439 21.6918 24.5264 20.3504 24.5264C19.009 24.5264 17.9214 23.4389 17.9214 22.0974V21.455L17.8856 21.4115C17.6889 22.5564 16.6927 23.4279 15.4925 23.4279C14.151 23.4279 13.0635 22.3397 13.0635 20.9971V28.5152C13.0635 28.5152 13.0635 34.2234 16.3125 38.0996C17.0391 38.9663 17.4509 40.0697 17.4509 41.2192V44.5089L24.2976 46.3019L30.6738 44.5089L31.5988 43.6125V41.1933C31.5988 40.4256 31.8695 39.6819 32.3665 39.0969C33.5258 37.7321 35.6472 34.8638 36.2019 31.5945C37.4064 24.4971 38.0382 16.486 32.8534 16.486V16.486Z" fill="#FFC89F"/>
<path d="M33.7497 16.486H31.9282C37.1131 16.486 36.4813 24.4971 35.277 31.5942C34.7223 34.8634 32.6009 36.8211 31.4415 38.1858C30.9446 38.7709 30.6738 39.5145 30.6738 40.2823V44.5087L31.5582 45.4051L32.4953 44.5087V41.1931C32.4953 40.4253 32.766 39.6816 33.263 39.0966C34.4223 37.7318 36.5437 34.8635 37.0984 31.5942C38.3027 24.4971 38.9345 16.486 33.7497 16.486V16.486Z" fill="#F7BC94"/>
<path d="M16.5664 45.0147V50.4941C16.5664 50.7735 16.7929 51 17.0723 51H31.5581L32.4831 50.1035V45.4051L31.5581 44.5086H17.0723C16.7929 44.5086 16.5664 44.7351 16.5664 45.0147V45.0147Z" fill="#E6E2E6"/>
<path d="M31.5586 44.5086V51H32.874C33.1534 51 33.3799 50.7735 33.3799 50.4941V45.0147C33.3799 44.7352 33.1534 44.5087 32.874 44.5087H31.5586V44.5086Z" fill="#D8D1D7"/>
<path d="M31.9468 22.3752L31.3792 24.5552C29.993 25.0236 25.7536 26.8272 23.6738 31.8752C23.5217 32.2443 23.6582 32.6841 24.0129 32.8673C24.1261 32.9258 24.2457 32.9531 24.363 32.9531C24.662 32.9531 24.9454 32.7752 25.0657 32.4813C27.2149 27.2283 32.1446 25.9049 32.1924 25.8925C32.461 25.8248 32.6714 25.616 32.7412 25.348L33.2994 23.2043C33.372 22.9254 33.1973 22.6422 32.9154 22.582L31.9468 22.3752Z" fill="#EAA678"/>
<path d="M25.5007 5.9662C25.9207 5.9662 26.2611 5.62574 26.2611 5.20579V0.760418C26.2611 0.340465 25.9207 0 25.5007 0C25.0806 0 24.7402 0.340465 24.7402 0.760418V5.20579C24.7402 5.62574 25.0806 5.9662 25.5007 5.9662Z" fill="#FFE27A"/>
<path d="M7.2594 22.6861H2.81413C2.39408 22.6861 2.05371 23.0266 2.05371 23.4466C2.05371 23.8665 2.39408 24.207 2.81413 24.207H7.2595C7.67955 24.207 8.01992 23.8665 8.01992 23.4466C8.01982 23.0266 7.67945 22.6861 7.2594 22.6861V22.6861Z" fill="#FFE27A"/>
<path d="M48.1863 22.6861H43.7409C43.3208 22.6861 42.9805 23.0266 42.9805 23.4466C42.9805 23.8665 43.3208 24.207 43.7409 24.207H48.1863C48.6063 24.207 48.9467 23.8665 48.9467 23.4466C48.9467 23.0266 48.6063 22.6861 48.1863 22.6861V22.6861Z" fill="#FFE27A"/>
<path d="M42.0799 6.86737C41.7829 6.57043 41.3015 6.57043 41.0045 6.86737L37.8611 10.0107C37.1864 10.7442 38.1927 11.7581 38.9366 11.0861L42.0799 7.94275C42.3769 7.64572 42.3769 7.16431 42.0799 6.86737V6.86737Z" fill="#FFE27A"/>
<path d="M44.7281 15.9134C44.5749 15.5223 44.1333 15.3297 43.7428 15.4828L42.2065 16.0846C41.292 16.5012 41.8117 17.8253 42.7611 17.5007L44.2974 16.8988C44.6885 16.7456 44.8813 16.3045 44.7281 15.9134Z" fill="#FFE27A"/>
<path d="M31.8768 7.17078C32.1704 7.31293 32.7287 7.1415 32.8622 6.74017L33.4817 5.15917C33.6349 4.76821 33.442 4.32694 33.0511 4.17374C32.6597 4.02054 32.2188 4.21338 32.0656 4.60435L31.4462 6.18535C31.293 6.57632 31.4858 7.01759 31.8768 7.17078V7.17078Z" fill="#FFE27A"/>
<path d="M18.1379 6.74006C18.5497 7.68097 19.873 7.09945 19.5539 6.18534L18.9345 4.60434C18.7812 4.21327 18.3403 4.02063 17.949 4.17372C17.5581 4.32692 17.3652 4.76819 17.5184 5.15916L18.1379 6.74006Z" fill="#FFE27A"/>
<path d="M13.1398 11.086C13.4367 10.7891 13.4367 10.3076 13.1398 10.0106L9.99642 6.86726C9.69939 6.57033 9.21798 6.57033 8.92094 6.86726C8.62401 7.1642 8.62401 7.64571 8.92094 7.94265L12.0643 11.086C12.3271 11.3407 12.8056 11.4089 13.1398 11.086Z" fill="#FFE27A"/>
<path d="M8.79393 16.0846L7.25766 15.4828C6.86669 15.3296 6.42542 15.5224 6.27232 15.9134C6.11912 16.3045 6.31197 16.7456 6.70303 16.8988L8.23931 17.5007C8.33045 17.5363 8.42418 17.5533 8.51642 17.5533C8.82023 17.5533 9.10711 17.37 9.22465 17.0701C9.37774 16.679 9.185 16.2378 8.79393 16.0846Z" fill="#FFE27A"/>
</svg>
