<svg width="22" height="22" viewBox="0 0 22 22" fill="none" xmlns="http://www.w3.org/2000/svg">
<path d="M6.83237 0.0816383C6.61752 0.193357 6.48002 0.442577 6.50151 0.691795C6.5144 0.859373 6.59604 1.00117 7.08588 1.71875C7.39956 2.17422 7.65737 2.56953 7.66167 2.59101C7.66596 2.6125 7.52846 2.71562 7.35229 2.81875C5.46596 3.94883 4.20268 5.92539 3.95346 8.14258C3.91909 8.43906 3.91049 9.68945 3.92338 12.1816C3.94057 16.0531 3.93627 15.9414 4.16831 16.7922C5.07495 20.1008 8.2976 22.3094 11.7093 21.957C14.5882 21.6648 17.0031 19.6453 17.8066 16.8738C18.0687 15.9715 18.0644 16.0617 18.0816 12.1816C18.0902 9.64219 18.0816 8.47773 18.0472 8.14258C17.8109 5.94687 16.5519 3.97461 14.6398 2.81445C14.4593 2.70703 14.3175 2.59531 14.3347 2.57383C14.3476 2.55234 14.5839 2.2 14.8632 1.7918C15.4519 0.928123 15.5121 0.824999 15.5121 0.635937C15.5078 0.317966 15.1941 -1.90735e-06 14.8804 -1.90735e-06C14.5624 -1.90735e-06 14.4679 0.0945301 13.789 1.08281C13.4367 1.59844 13.1359 2.04101 13.1273 2.07109C13.1101 2.10976 13.2046 2.16133 13.3937 2.22578C13.8105 2.37187 14.266 2.58242 14.266 2.62969C14.266 2.66406 13.2691 4.14648 12.5429 5.19922L12.3753 5.43555L12.4871 5.71055C12.5859 5.95547 12.5988 6.03281 12.5816 6.38086C12.5687 6.69453 12.5429 6.81914 12.4484 7.0082C12.3023 7.30898 11.9929 7.61836 11.6878 7.76875C11.4773 7.87188 11.4042 7.88477 11.0003 7.88477C10.5964 7.88477 10.5234 7.87188 10.3128 7.76875C10.0078 7.61836 9.69838 7.30898 9.54799 7.00391C9.44487 6.79336 9.43198 6.72031 9.43198 6.31641C9.43198 5.9125 9.44487 5.83945 9.54799 5.62891C9.69838 5.32383 10.0078 5.01445 10.3128 4.86406C10.4976 4.77383 10.6308 4.74375 10.9359 4.72656L11.3183 4.70508L12.1949 3.42461C12.6761 2.71992 13.0585 2.13125 13.0499 2.11836C12.9984 2.07109 12.3581 1.9293 11.9113 1.86914C11.0519 1.75312 10.1109 1.80898 9.29448 2.01523C9.10112 2.0668 8.93784 2.10547 8.92495 2.10547C8.91635 2.10547 8.61127 1.66719 8.24604 1.13437C7.71752 0.35664 7.55424 0.146091 7.42534 0.0816383C7.22338 -0.0214863 7.02143 -0.0214863 6.83237 0.0816383ZM14.3089 10.6992C14.5023 10.798 14.6527 11.043 14.6527 11.2578C14.6527 11.4727 14.5023 11.7176 14.3089 11.8164C14.1456 11.9023 14.064 11.9023 10.996 11.9023H7.85502L7.68315 11.8078C7.24917 11.5629 7.24487 10.9742 7.67456 10.7164L7.84213 10.6133H10.9917C14.064 10.6133 14.1456 10.6133 14.3089 10.6992ZM14.3089 13.2773C14.5023 13.3762 14.6527 13.6211 14.6527 13.8359C14.6527 14.0508 14.5023 14.2957 14.3089 14.3945C14.1456 14.4805 14.064 14.4805 10.996 14.4805H7.85502L7.68315 14.3859C7.24917 14.141 7.24487 13.5523 7.67456 13.2945L7.84213 13.1914H10.9917C14.064 13.1914 14.1456 13.1914 14.3089 13.2773ZM14.3089 15.8555C14.5023 15.9543 14.6527 16.1992 14.6527 16.4141C14.6527 16.6289 14.5023 16.8738 14.3089 16.9727C14.1456 17.0586 14.064 17.0586 10.996 17.0586H7.85502L7.68315 16.9641C7.24917 16.7191 7.24487 16.1305 7.67456 15.8727L7.84213 15.7695H10.9917C14.064 15.7695 14.1456 15.7695 14.3089 15.8555Z" fill="white"/>
</svg>
