<svg width="51" height="51" viewBox="0 0 51 51" fill="none" xmlns="http://www.w3.org/2000/svg">
<g clip-path="url(#clip0_186_477)">
<path d="M9.17383 1.02618V38.3642C9.17383 38.9309 9.63323 39.3903 10.2 39.3903H33.0257C33.5925 39.3903 34.0519 38.9309 34.0519 38.3642V1.02618C34.0519 0.459398 33.5925 0 33.0257 0H10.1999C9.63323 0 9.17383 0.459398 9.17383 1.02618Z" fill="#B3E59F"/>
<path d="M30.8113 19.8008C30.8049 19.8009 30.7985 19.8007 30.7921 19.8009C29.3672 19.84 28.0384 20.4374 27.0506 21.4831C26.0841 22.5061 25.5518 23.8452 25.5518 25.2538V30.6488L23.6227 32.1494C22.1476 33.2966 21.3018 35.0263 21.3018 36.8949V39.3903H33.0256C33.5924 39.3903 34.0518 38.9309 34.0518 38.3642V20.9998C33.1712 20.2654 32.0433 19.8186 30.8113 19.8008Z" fill="#95D6A4"/>
<path d="M12.4912 35.0471V4.34328C12.4912 3.77651 12.9506 3.31711 13.5174 3.31711H29.709C30.2758 3.31711 30.7352 3.77651 30.7352 4.34328V35.0471C30.7352 35.6139 30.2758 36.0733 29.709 36.0733H13.5174C12.9507 36.0732 12.4912 35.6138 12.4912 35.0471Z" fill="#78C2A4"/>
<path d="M30.7348 35.0471V19.8038C29.3317 19.8573 28.0251 20.4515 27.0507 21.483C26.0841 22.5061 25.5518 23.8452 25.5518 25.2538V30.6488L23.6227 32.1494C22.3668 33.1262 21.5694 34.5258 21.3594 36.0732H29.7086C30.2754 36.0731 30.7348 35.6137 30.7348 35.0471Z" fill="#66B394"/>
<path d="M21.6131 23.8415C23.9031 23.8415 25.7595 21.9851 25.7595 19.6952C25.7595 17.4052 23.9031 15.5488 21.6131 15.5488C19.3232 15.5488 17.4668 17.4052 17.4668 19.6952C17.4668 21.9851 19.3232 23.8415 21.6131 23.8415Z" fill="#B3E59F"/>
<path d="M41.6216 32.8134L39.5821 23.8164C39.3184 22.6533 38.807 21.5607 38.0826 20.6133L34.0525 15.3414V25.189C34.0525 23.4425 32.6127 22.0323 30.8553 22.0805C29.1614 22.127 27.8329 23.5593 27.8329 25.2538V31.7639L25.0235 33.9494C24.1145 34.6564 23.583 35.7433 23.583 36.8948V41.2678C23.583 42.3768 24.0763 43.4284 24.929 44.1373C25.2611 44.4134 25.4533 44.8229 25.4533 45.2548V49.9738C25.4533 50.5406 25.9127 51 26.4794 51H36.6544C37.2212 51 37.6806 50.5406 37.6806 49.9738V44.99C37.6806 44.7176 37.7571 44.4507 37.9016 44.2197L40.5665 39.9558C41.3903 38.6379 41.827 37.115 41.827 35.5606V34.6467C41.8268 34.0299 41.7579 33.4151 41.6216 32.8134Z" fill="#F1D0A5"/>
<path d="M37.9014 44.2197L40.5663 39.9558C41.3901 38.6379 41.8268 37.1148 41.8268 35.5606V34.6456C41.8268 34.0291 41.758 33.4145 41.6216 32.8134L41.5973 32.7064C40.8939 37.317 35.7109 46.9573 25.4531 46.9573V49.9739C25.4531 50.5407 25.9125 51.0001 26.4793 51.0001H36.6543C37.2211 51.0001 37.6805 50.5407 37.6805 49.9739V44.9901C37.6805 44.7176 37.7571 44.4507 37.9014 44.2197Z" fill="#F1B986"/>
<path d="M19.9541 13.0576C19.5414 13.0576 19.207 12.7232 19.207 12.3105V8.70734C19.207 8.29465 19.5414 7.96027 19.9541 7.96027C20.3668 7.96027 20.7012 8.29465 20.7012 8.70734V12.3105C20.7012 12.7231 20.3668 13.0576 19.9541 13.0576Z" fill="#66B394"/>
<path d="M19.9541 31.43C19.5414 31.43 19.207 31.0956 19.207 30.6829V27.0797C19.207 26.667 19.5414 26.3326 19.9541 26.3326C20.3668 26.3326 20.7012 26.667 20.7012 27.0797V30.6829C20.7012 31.0956 20.3668 31.43 19.9541 31.43Z" fill="#66B394"/>
<path d="M23.2715 31.511C22.8588 31.511 22.5244 31.1766 22.5244 30.764V27.0798C22.5244 26.6671 22.8588 26.3327 23.2715 26.3327C23.6842 26.3327 24.0186 26.6671 24.0186 27.0798V30.764C24.0186 31.1765 23.6842 31.511 23.2715 31.511Z" fill="#66B394"/>
<path d="M23.2715 13.0576C22.8588 13.0576 22.5244 12.7232 22.5244 12.3105V8.62637C22.5244 8.21369 22.8588 7.8793 23.2715 7.8793C23.6842 7.8793 24.0186 8.21369 24.0186 8.62637V12.3105C24.0186 12.7231 23.6842 13.0576 23.2715 13.0576Z" fill="#66B394"/>
<path d="M34.5706 29.8289L34.05 30.1126V25.1125C34.023 23.9993 33.412 23.0308 32.5107 22.5033V31.7764C32.5107 32.5649 32.8424 33.3248 33.4208 33.8611L34.1794 34.5644C34.3275 34.7016 34.5152 34.7696 34.7024 34.7696C34.9091 34.7696 35.1154 34.6868 35.267 34.5231C35.556 34.2115 35.5376 33.7246 35.2259 33.4355L34.4674 32.7324C34.2235 32.5063 34.0769 32.1931 34.0546 31.863L35.3072 31.1802C35.6804 30.9769 35.8181 30.5095 35.6147 30.1362C35.4113 29.7631 34.9439 29.6252 34.5706 29.8289Z" fill="#F1B986"/>
</g>
<defs>
<clipPath id="clip0_186_477">
<rect width="51" height="51" fill="white"/>
</clipPath>
</defs>
</svg>
