<svg width="10" height="10" viewBox="0 0 10 10" fill="none" xmlns="http://www.w3.org/2000/svg">
<path d="M9.80241 0.936218L9.11976 0.261684C8.93504 0.0769682 8.62986 0.0769682 8.43711 0.261684L5.03189 3.6668L1.56249 0.197435C1.3777 0.0126389 1.07251 0.0126389 0.879843 0.197435L0.197192 0.88008C0.0123944 1.0648 0.0123944 1.36998 0.197192 1.56273L3.65863 5.02414L0.261441 8.43736C0.0767242 8.62208 0.0767242 8.92726 0.261441 9.12001L0.944092 9.80265C1.12881 9.98737 1.43399 9.98737 1.62674 9.80265L5.03189 6.39746L8.43711 9.80265C8.62182 9.98737 8.92701 9.98737 9.11976 9.80265L9.80241 9.12001C9.98713 8.93529 9.98713 8.63011 9.80241 8.43736L6.38915 5.03217L9.79438 1.62705C9.98713 1.43415 9.98713 1.12896 9.80241 0.936218Z" fill="#2D3554"/>
</svg>
