<svg width="16" height="18" viewBox="0 0 16 18" fill="none" xmlns="http://www.w3.org/2000/svg">
<g clip-path="url(#clip0_2:94)">
<path d="M7.87778 4.95684C5.64184 4.95684 3.83832 6.76035 3.83832 8.99629C3.83832 11.2322 5.64184 13.0357 7.87778 13.0357C10.1137 13.0357 11.9172 11.2322 11.9172 8.99629C11.9172 6.76035 10.1137 4.95684 7.87778 4.95684ZM7.87778 11.6225C6.43286 11.6225 5.2516 10.4447 5.2516 8.99629C5.2516 7.54785 6.42934 6.37012 7.87778 6.37012C9.32622 6.37012 10.504 7.54785 10.504 8.99629C10.504 10.4447 9.3227 11.6225 7.87778 11.6225ZM13.0247 4.7916C13.0247 5.31543 12.6028 5.73379 12.0825 5.73379C11.5586 5.73379 11.1403 5.31191 11.1403 4.7916C11.1403 4.27129 11.5622 3.84941 12.0825 3.84941C12.6028 3.84941 13.0247 4.27129 13.0247 4.7916ZM15.7001 5.74785C15.6403 4.48574 15.352 3.36777 14.4274 2.44668C13.5063 1.52559 12.3883 1.2373 11.1262 1.17402C9.82544 1.1002 5.9266 1.1002 4.62582 1.17402C3.36722 1.23379 2.24925 1.52207 1.32464 2.44316C0.400031 3.36426 0.115265 4.48223 0.0519837 5.74434C-0.0218445 7.04512 -0.0218445 10.9439 0.0519837 12.2447C0.111749 13.5068 0.400031 14.6248 1.32464 15.5459C2.24925 16.467 3.36371 16.7553 4.62582 16.8186C5.9266 16.8924 9.82544 16.8924 11.1262 16.8186C12.3883 16.7588 13.5063 16.4705 14.4274 15.5459C15.3485 14.6248 15.6368 13.5068 15.7001 12.2447C15.7739 10.9439 15.7739 7.04863 15.7001 5.74785ZM14.0196 13.6404C13.7454 14.3295 13.2145 14.8604 12.5219 15.1381C11.4848 15.5494 9.02388 15.4545 7.87778 15.4545C6.73168 15.4545 4.26723 15.5459 3.23363 15.1381C2.54457 14.8639 2.01371 14.333 1.73597 13.6404C1.32464 12.6033 1.41956 10.1424 1.41956 8.99629C1.41956 7.8502 1.32816 5.38574 1.73597 4.35215C2.01019 3.66309 2.54105 3.13223 3.23363 2.85449C4.27074 2.44316 6.73168 2.53809 7.87778 2.53809C9.02388 2.53809 11.4883 2.44668 12.5219 2.85449C13.211 3.12871 13.7419 3.65957 14.0196 4.35215C14.4309 5.38926 14.336 7.8502 14.336 8.99629C14.336 10.1424 14.4309 12.6068 14.0196 13.6404Z" fill="white"/>
</g>
<defs>
<clipPath id="clip0_2:94">
<rect width="15.75" height="18" fill="white"/>
</clipPath>
</defs>
</svg>
