<svg width="18" height="18" viewBox="0 0 18 18" fill="none" xmlns="http://www.w3.org/2000/svg">
<path d="M18 9C18 13.9703 13.9703 18 9 18C4.02971 18 0 13.9703 0 9C0 4.02971 4.02971 0 9 0C13.9713 0 18 4.02971 18 9Z" fill="white"/>
<path d="M4.44084 9.3024L4.47966 9.24137L6.82092 5.57876C6.85514 5.52514 6.93558 5.53068 6.96147 5.58893C7.35261 6.46551 7.69011 7.5557 7.532 8.23441C7.4645 8.51366 7.27956 8.89184 7.0715 9.24137C7.0447 9.29223 7.01511 9.34217 6.98366 9.39024C6.96887 9.41244 6.9439 9.42538 6.91708 9.42538H4.50926C4.44453 9.42538 4.40662 9.35511 4.44084 9.3024Z" fill="#FF9136"/>
<path d="M14.876 9.98295V10.5627C14.876 10.596 14.8557 10.6256 14.8261 10.6385C14.6448 10.7162 14.0244 11.001 13.7664 11.3598C13.108 12.2761 12.605 13.5864 11.4806 13.5864H6.78978C5.12724 13.5864 3.78 12.2345 3.78 10.5664V10.5128C3.78 10.4684 3.81605 10.4323 3.86044 10.4323H6.47541C6.52718 10.4323 6.56509 10.4804 6.56048 10.5313C6.54197 10.7014 6.57342 10.8753 6.65386 11.0334C6.8092 11.3487 7.13099 11.5456 7.47866 11.5456H8.7732V10.535H7.49345C7.42781 10.535 7.38898 10.4591 7.42689 10.4055C7.44075 10.3842 7.45648 10.3621 7.47311 10.3371C7.59425 10.1651 7.76716 9.89789 7.93915 9.59367C8.05658 9.3884 8.17031 9.16925 8.26186 8.94918C8.28036 8.90942 8.29514 8.86872 8.30993 8.82896C8.3349 8.75869 8.3608 8.69304 8.37929 8.62739C8.39779 8.5719 8.41257 8.51365 8.42736 8.45909C8.47083 8.27231 8.48932 8.07443 8.48932 7.86916C8.48932 7.78872 8.48563 7.70457 8.47823 7.62413C8.47452 7.53629 8.46344 7.44843 8.45233 7.36059C8.44493 7.28292 8.43107 7.20617 8.41628 7.12573C8.39779 7.00829 8.37189 6.8918 8.3423 6.77435L8.33213 6.72998C8.30993 6.64952 8.29145 6.57278 8.26556 6.49234C8.1925 6.23989 8.10837 5.99394 8.01959 5.7637C7.98723 5.67215 7.95024 5.58431 7.91325 5.49647C7.85871 5.36425 7.80321 5.24404 7.75236 5.1303C7.72648 5.07851 7.70429 5.03135 7.68209 4.98328C7.65713 4.92872 7.63124 4.87416 7.60534 4.82239C7.58685 4.78263 7.56558 4.74564 7.55078 4.70865L7.39267 4.41646C7.37048 4.37669 7.40747 4.32953 7.45092 4.34156L8.44033 4.6097H8.4431C8.44493 4.6097 8.44587 4.61064 8.44679 4.61064L8.57716 4.64669L8.7205 4.68739L8.7732 4.70217V4.11409C8.7732 3.83021 9.00066 3.59998 9.28177 3.59998C9.42231 3.59998 9.54992 3.65731 9.64147 3.75069C9.733 3.84409 9.79033 3.97169 9.79033 4.11409V4.98698L9.89575 5.01656C9.90407 5.01935 9.91238 5.02304 9.91978 5.02858C9.94568 5.048 9.98266 5.07666 10.0298 5.11181C10.0668 5.14139 10.1066 5.17746 10.1546 5.21445C10.2499 5.29118 10.3636 5.39013 10.4885 5.50387C10.5217 5.53253 10.5541 5.56212 10.5837 5.59171C10.7446 5.74151 10.9249 5.91719 11.0969 6.11137C11.145 6.16593 11.1921 6.22141 11.2402 6.27965C11.2883 6.33884 11.3392 6.39709 11.3835 6.45535C11.4418 6.53302 11.5047 6.61346 11.5592 6.69761C11.5851 6.73738 11.6147 6.77806 11.6397 6.81782C11.7099 6.92414 11.7719 7.0342 11.8311 7.14423C11.856 7.19508 11.8819 7.25055 11.9041 7.30511C11.9698 7.45214 12.0216 7.60193 12.0548 7.75173C12.065 7.78409 12.0724 7.81923 12.0761 7.85068V7.85807C12.0872 7.90244 12.0909 7.9496 12.0946 7.99768C12.1094 8.15119 12.102 8.30467 12.0687 8.45909C12.0548 8.52476 12.0363 8.5867 12.0142 8.65236C11.992 8.71523 11.9698 8.78088 11.9411 8.84283C11.8856 8.97135 11.82 9.09989 11.7423 9.2201C11.7173 9.26448 11.6877 9.31165 11.6581 9.35603C11.6258 9.40317 11.5925 9.44756 11.5629 9.49103C11.5222 9.54651 11.4788 9.60476 11.4344 9.65654C11.3946 9.7111 11.3539 9.76566 11.3096 9.81374C11.2476 9.88678 11.1884 9.95613 11.1265 10.0227C11.0895 10.0662 11.0497 10.1106 11.009 10.1503C10.9693 10.1947 10.9286 10.2345 10.8916 10.2714C10.8297 10.3334 10.7779 10.3815 10.7344 10.4212L10.6327 10.5146C10.6179 10.5276 10.5985 10.535 10.5781 10.535H9.79033V11.5456H10.7816C11.0035 11.5456 11.2143 11.467 11.3845 11.3228C11.4427 11.2719 11.697 11.0519 11.9975 10.7199C12.0077 10.7088 12.0206 10.7005 12.0354 10.6968L14.7734 9.90528C14.8242 9.89049 14.876 9.92931 14.876 9.98295Z" fill="#FF9136"/>
</svg>
